<?xml version="1.0" encoding="iso-8859-1"?>
<!-- Generator: Adobe Illustrator 19.0.0, SVG Export Plug-In . SVG Version: 6.00 Build 0)  -->
<svg version="1.1" id="Layer_1" xmlns="http://www.w3.org/2000/svg" xmlns:xlink="http://www.w3.org/1999/xlink" x="0px" y="0px"
	 viewBox="0 0 512 512" style="enable-background:new 0 0 512 512;" xml:space="preserve">
<g>
	<g>
		<path d="M428.018,185.238c2.088-9.162,3.14-18.553,3.14-28.044c0-69.342-56.412-125.754-125.754-125.754
			c-56.053,0-105.517,37.724-120.86,90.895c-4.57-0.711-9.219-1.07-13.877-1.07c-46.64,0-85.088,35.728-89.421,81.25
			C35.728,206.843,0,245.295,0,291.931c0,31.005,15.667,59.412,41.912,75.991c1.491,0.943,3.149,1.39,4.789,1.39
			c2.982,0,5.895-1.478,7.605-4.184c2.649-4.193,1.395-9.741-2.798-12.39c-21-13.272-33.544-36.004-33.544-60.807
			c0-39.623,32.237-71.86,71.86-71.86c4.965,0,8.982-4.022,8.982-8.982c0-39.623,32.237-71.86,71.86-71.86
			c6.175,0,12.316,0.785,18.228,2.329c2.36,0.618,4.904,0.245,6.991-1.044c2.088-1.294,3.561-3.381,4.07-5.781
			c10.474-49.443,54.825-85.329,105.447-85.329c59.439,0,107.789,48.355,107.789,107.789c0,11.351-1.754,22.531-5.211,33.228
			c-0.868,2.68-0.43,5.61,1.184,7.917c1.614,2.303,4.219,3.719,7.035,3.825c43.64,1.588,77.833,37.075,77.833,80.785
			c0,4.961,4.018,8.982,8.982,8.982c4.965,0,8.982-4.022,8.982-8.982C512,233.312,475.921,192.352,428.018,185.238z"/>
	</g>
</g>
<g>
	<g>
		<path d="M296.421,211.059c-29.719,0-53.895,24.191-53.895,53.91c0,4.961,4.018,8.989,8.982,8.989c4.965,0,8.982-4.017,8.982-8.978
			c0-19.811,16.114-35.929,35.93-35.929c19.816,0,35.93,16.061,35.93,35.873c0,19.811-16.114,35.872-35.93,35.872H125.754
			c-4.965,0-8.982,4.022-8.982,8.982c0,4.961,4.018,8.982,8.982,8.982h170.667c29.719,0,53.895-24.116,53.895-53.837
			C350.316,235.205,326.14,211.059,296.421,211.059z"/>
	</g>
</g>
<g>
	<g>
		<path d="M296.421,372.656H125.754c-4.965,0-8.982,4.022-8.982,8.982s4.018,8.982,8.982,8.982h170.667
			c19.816,0,35.93,16.178,35.93,35.988c0,19.812-16.114,35.959-35.93,35.959c-19.816,0-35.93-16.103-35.93-35.915
			c0-4.961-4.017-8.976-8.982-8.976c-4.965,0-8.982,4.026-8.982,8.987c0,29.719,24.176,53.896,53.895,53.896
			c29.719,0,53.895-24.232,53.895-53.952C350.316,396.889,326.14,372.656,296.421,372.656z"/>
	</g>
</g>
<g>
	<g>
		<path d="M431.158,336.726H125.754c-4.965,0-8.982,4.022-8.982,8.982c0,4.961,4.018,8.982,8.982,8.982h305.404
			c19.816,0,35.93,16.178,35.93,35.988c0,19.812-16.114,35.959-35.93,35.959c-19.816,0-35.93-16.103-35.93-35.915
			c0-4.961-4.017-8.976-8.982-8.976c-4.965,0-8.982,4.026-8.982,8.987c0,29.719,24.176,53.896,53.895,53.896
			c29.719,0,53.895-24.232,53.895-53.952C485.053,360.959,460.877,336.726,431.158,336.726z"/>
	</g>
</g>
<g>
</g>
<g>
</g>
<g>
</g>
<g>
</g>
<g>
</g>
<g>
</g>
<g>
</g>
<g>
</g>
<g>
</g>
<g>
</g>
<g>
</g>
<g>
</g>
<g>
</g>
<g>
</g>
<g>
</g>
</svg>
